<svg xmlns="http://www.w3.org/2000/svg" version="1.1" xmlns:xlink="http://www.w3.org/1999/xlink" width="30" height="30"><svg width="30" height="30" viewBox="0 0 30 30" fill="none" xmlns="http://www.w3.org/2000/svg">
<rect width="30" height="30" rx="15" fill="#163300"></rect>
<path d="M15.5146 5.0127C20.7983 5.28054 25 9.64975 25 15L24.9873 15.5146C24.7195 20.7983 20.3502 25 15 25L14.4854 24.9873C9.37212 24.7281 5.2719 20.6279 5.0127 15.5146L5 15C5 9.47715 9.47715 5 15 5L15.5146 5.0127ZM15 6.5C10.3056 6.5 6.5 10.3056 6.5 15C6.5 19.6944 10.3056 23.5 15 23.5C19.6944 23.5 23.5 19.6944 23.5 15C23.5 10.3056 19.6944 6.5 15 6.5ZM15.8428 8.00879C17.6516 8.10049 19.2683 8.91498 20.415 10.167L19.3545 11.2275C18.4085 10.1678 17.0323 9.50009 15.5 9.5C13.1989 9.50009 11.2497 11.005 10.5811 13.084H18V14.584H10.335C10.3345 14.6116 10.333 14.6393 10.333 14.667C10.333 14.8357 10.3426 15.0024 10.3584 15.167H18V16.667H10.7354C11.5173 18.5268 13.3559 19.8329 15.5 19.833C17.0327 19.8329 18.4084 19.1645 19.3545 18.1045L20.415 19.166C19.1964 20.4966 17.4467 21.3329 15.5 21.333L15.1562 21.3242C12.3225 21.1803 9.95759 19.2667 9.14062 16.667H8V15.167H8.85352C8.84964 15.1147 8.84446 15.0624 8.8418 15.0098L8.83301 14.667C8.83301 14.6393 8.83462 14.6116 8.83496 14.584H8V13.084H9.02344C9.73415 10.1664 12.3637 8.00009 15.5 8L15.8428 8.00879Z" fill="#9FE870"></path>
</svg><style>@media (prefers-color-scheme: light) { :root { filter: none; } }
@media (prefers-color-scheme: dark) { :root { filter: none; } }
</style></svg>