<svg width="131" height="131" viewBox="0 0 131 131" fill="none" xmlns="http://www.w3.org/2000/svg">
<g clip-path="url(#clip0_49_712)">
<mask id="mask0_49_712" style="mask-type:luminance" maskUnits="userSpaceOnUse" x="0" y="0" width="131" height="131">
<path d="M131 0H0V131H131V0Z" fill="white"/>
</mask>
<g mask="url(#mask0_49_712)">
<path d="M65.5 131C101.675 131 131 101.675 131 65.5C131 29.3254 101.675 0 65.5 0C29.3254 0 0 29.3254 0 65.5C0 101.675 29.3254 131 65.5 131Z" fill="white"/>
<path d="M65.4994 51.8542C73.0045 51.8542 79.1451 57.9949 79.1451 65.4999C79.1451 73.0052 73.0045 79.1458 65.4994 79.1458C57.9941 79.1458 51.8535 73.0052 51.8535 65.4999C51.8535 57.9949 57.9941 51.8542 65.4994 51.8542Z" fill="white"/>
<path d="M65.5 51.8541C73.0053 51.8541 79.1459 57.9947 79.1459 65.5C79.1459 73.0053 73.0053 79.1459 65.5 79.1459C57.9947 79.1459 51.8541 73.0053 51.8541 65.5C51.8541 57.9947 57.9947 51.8541 65.5 51.8541ZM65.5 49.125C56.4937 49.125 49.125 56.4937 49.125 65.5C49.125 74.5063 56.4937 81.875 65.5 81.875C74.5063 81.875 81.875 74.5063 81.875 65.5C81.875 56.4937 74.5063 49.125 65.5 49.125Z" fill="#231D9A"/>
<path d="M3.68408 43.6666H127.179C118.309 18.2854 94.0194 0 65.4997 0C36.98 0 12.6903 18.2854 3.68408 43.6666Z" fill="#FF7700"/>
<path d="M127.315 87.3333H3.68408C12.6903 112.715 36.98 131 65.4997 131C94.0194 131 118.309 112.715 127.315 87.3333Z" fill="#005B13"/>
<path d="M73.6604 65.7381C73.7804 61.218 70.2135 57.4566 65.6934 57.3367C61.1735 57.2167 57.4119 60.7836 57.292 65.3037C57.1721 69.8236 60.7389 73.5852 65.2591 73.7051C69.779 73.8251 73.5405 70.2582 73.6604 65.7381Z" fill="#231D9A"/>
</g>
</g>
<defs>
<clipPath id="clip0_49_712">
<rect width="131" height="131" rx="65.5" fill="white"/>
</clipPath>
</defs>
</svg>
