<svg width="32" height="32" viewBox="0 0 32 32" fill="none" xmlns="http://www.w3.org/2000/svg">
<path fill-rule="evenodd" clip-rule="evenodd" d="M27.2362 8C27.9469 8 28.5229 8.576 28.5229 9.28533V16H26.2362V11.9027L16.7629 21.376C16.6563 21.4827 16.5297 21.5673 16.3904 21.625C16.251 21.6828 16.1017 21.7125 15.9509 21.7125C15.8001 21.7125 15.6507 21.6828 15.5114 21.625C15.3721 21.5673 15.2455 21.4827 15.1389 21.376L11.3789 17.616L5.04556 23.952L3.42822 22.336L10.5682 15.1973C10.6748 15.0907 10.8014 15.006 10.9407 14.9483C11.0801 14.8906 11.2294 14.8608 11.3802 14.8608C11.531 14.8608 11.6804 14.8906 11.8197 14.9483C11.959 15.006 12.0856 15.0907 12.1922 15.1973L15.9522 18.956L24.6216 10.2853H20.5229V8H27.2362ZM5.66689 11.4293H17.0949V9.14267H5.66689V11.4293Z" fill="#163300"/>
</svg>
