<svg width="16" height="16" viewBox="0 0 16 16" fill="none" xmlns="http://www.w3.org/2000/svg">
<path fill-rule="evenodd" clip-rule="evenodd" d="M4 4.57067C4.14925 4.57071 4.29258 4.51235 4.39935 4.40807C4.50612 4.30379 4.56785 4.16187 4.57133 4.01267V3.986C4.56871 3.87361 4.53298 3.76448 4.46863 3.6723C4.40428 3.58011 4.31416 3.50896 4.20956 3.46776C4.10496 3.42655 3.99052 3.41712 3.88059 3.44065C3.77065 3.46418 3.6701 3.51962 3.59153 3.60003C3.51296 3.68043 3.45985 3.78224 3.43886 3.89268C3.41788 4.00313 3.42994 4.11732 3.47355 4.22094C3.51716 4.32456 3.59037 4.41302 3.68401 4.47523C3.77766 4.53744 3.88758 4.57064 4 4.57067ZM4 5.714C4.74667 5.714 5.38133 5.23667 5.61667 4.57133H14V3.42867H5.61667C5.4985 3.09432 5.27957 2.80483 4.99004 2.60008C4.70051 2.39532 4.35462 2.28538 4 2.28538C3.64538 2.28538 3.29949 2.39532 3.00996 2.60008C2.72043 2.80483 2.5015 3.09432 2.38333 3.42867H2V4.57133H2.38333C2.5018 4.90539 2.72084 5.19454 3.01033 5.39904C3.29983 5.60353 3.64556 5.71333 4 5.71333V5.714ZM9.81133 7.42867C9.92967 7.09439 10.1487 6.80501 10.4383 6.60034C10.7278 6.39566 11.0737 6.28577 11.4283 6.28577C11.7829 6.28577 12.1288 6.39566 12.4184 6.60034C12.708 6.80501 12.927 7.09439 13.0453 7.42867H14V8.57133H13.0453C12.9272 8.90568 12.7082 9.19517 12.4187 9.39992C12.1292 9.60468 11.7833 9.71462 11.4287 9.71462C11.0741 9.71462 10.7282 9.60468 10.4386 9.39992C10.1491 9.19517 9.93017 8.90568 9.812 8.57133H2V7.42867H9.81133ZM4.384 11.4267C4.50261 11.0928 4.72167 10.8039 5.01108 10.5996C5.3005 10.3953 5.64607 10.2856 6.00033 10.2856C6.3546 10.2856 6.70017 10.3953 6.98958 10.5996C7.279 10.8039 7.49806 11.0928 7.61667 11.4267H14V12.5693H7.61733C7.4993 12.9039 7.28039 13.1936 6.99078 13.3986C6.70117 13.6035 6.35512 13.7136 6.00033 13.7136C5.64555 13.7136 5.29949 13.6035 5.00988 13.3986C4.72027 13.1936 4.50136 12.9039 4.38333 12.5693H2V11.4267H4.384ZM12 7.99933C12 8.15086 11.9398 8.29618 11.8327 8.40333C11.7255 8.51047 11.5802 8.57067 11.4287 8.57067C11.2771 8.57067 11.1318 8.51047 11.0247 8.40333C10.9175 8.29618 10.8573 8.15086 10.8573 7.99933C10.8574 7.84781 10.9177 7.70252 11.0249 7.59544C11.1321 7.48835 11.2775 7.42824 11.429 7.42833C11.5805 7.42842 11.7258 7.4887 11.8329 7.59591C11.94 7.70312 12.0001 7.84847 12 8V7.99933ZM6.57133 11.9993C6.57133 12.1509 6.51114 12.2962 6.40399 12.4033C6.29685 12.5105 6.15153 12.5707 6 12.5707C5.84847 12.5707 5.70315 12.5105 5.59601 12.4033C5.48886 12.2962 5.42867 12.1509 5.42867 11.9993C5.42867 11.8478 5.48886 11.7025 5.59601 11.5953C5.70315 11.4882 5.84847 11.428 6 11.428C6.15153 11.428 6.29685 11.4882 6.40399 11.5953C6.51114 11.7025 6.57133 11.8478 6.57133 11.9993Z" fill="black"/>
</svg>
