<svg width="24" height="24" viewBox="0 0 24 24" fill="none" xmlns="http://www.w3.org/2000/svg">
<path fill-rule="evenodd" clip-rule="evenodd" d="M3.42889 1.713V20.57H22.2859V22.284H2.56989C2.35589 22.284 2.09989 22.199 1.96989 22.027C1.88945 21.949 1.82531 21.8558 1.7812 21.7528C1.73708 21.6498 1.71386 21.539 1.71289 21.427V1.713H3.42989H3.42889ZM13.9719 15.17L10.2859 11.485L5.74289 16.028L4.54289 14.828L9.68589 9.685C9.76331 9.6038 9.85641 9.53915 9.95954 9.49499C10.0627 9.45082 10.1737 9.42805 10.2859 9.42805C10.3981 9.42805 10.5091 9.45082 10.6122 9.49499C10.7154 9.53915 10.8085 9.6038 10.8859 9.685L14.5719 13.37L20.8289 7.113L22.0289 8.313L15.1719 15.17C15.0945 15.2512 15.0014 15.3158 14.8982 15.36C14.7951 15.4042 14.6841 15.4269 14.5719 15.4269C14.4597 15.4269 14.3487 15.4042 14.2455 15.36C14.1424 15.3158 14.0493 15.2512 13.9719 15.17Z" fill="black"/>
</svg>
