<svg width="113" height="30" viewBox="0 0 113 30" fill="none" xmlns="http://www.w3.org/2000/svg">
<rect width="30" height="30" rx="15" fill="#163300"/>
<path d="M15.5146 5.0127C20.7983 5.28054 25 9.64975 25 15L24.9873 15.5146C24.7195 20.7983 20.3502 25 15 25L14.4854 24.9873C9.37212 24.7281 5.2719 20.6279 5.0127 15.5146L5 15C5 9.47715 9.47715 5 15 5L15.5146 5.0127ZM15 6.5C10.3056 6.5 6.5 10.3056 6.5 15C6.5 19.6944 10.3056 23.5 15 23.5C19.6944 23.5 23.5 19.6944 23.5 15C23.5 10.3056 19.6944 6.5 15 6.5ZM15.8428 8.00879C17.6516 8.10049 19.2683 8.91498 20.415 10.167L19.3545 11.2275C18.4085 10.1678 17.0323 9.50009 15.5 9.5C13.1989 9.50009 11.2497 11.005 10.5811 13.084H18V14.584H10.335C10.3345 14.6116 10.333 14.6393 10.333 14.667C10.333 14.8357 10.3426 15.0024 10.3584 15.167H18V16.667H10.7354C11.5173 18.5268 13.3559 19.8329 15.5 19.833C17.0327 19.8329 18.4084 19.1645 19.3545 18.1045L20.415 19.166C19.1964 20.4966 17.4467 21.3329 15.5 21.333L15.1562 21.3242C12.3225 21.1803 9.95759 19.2667 9.14062 16.667H8V15.167H8.85352C8.84964 15.1147 8.84446 15.0624 8.8418 15.0098L8.83301 14.667C8.83301 14.6393 8.83462 14.6116 8.83496 14.584H8V13.084H9.02344C9.73415 10.1664 12.3637 8.00009 15.5 8L15.8428 8.00879Z" fill="#9FE870"/>
<path d="M46.6523 3.29883V8.04492H42.9902V27H36.8379V8.04492H33.1758V3.29883H46.6523ZM48.0586 3.26953H52.4385C55.3584 3.26953 57.3262 3.3916 58.3418 3.63574C59.3574 3.84082 60.1973 4.40723 60.8613 5.33496C61.5059 6.29199 61.8281 7.76172 61.8281 9.74414C61.8281 11.5898 61.5938 12.835 61.125 13.4795C60.666 14.1143 59.7725 14.4902 58.4443 14.6074C59.6846 14.9492 60.5049 15.3594 60.9053 15.8379C61.3447 16.3848 61.6035 16.8438 61.6816 17.2148C61.7402 17.4883 61.7793 17.9082 61.7988 18.4746C61.8184 19.041 61.8281 19.8027 61.8281 20.7598V27H56.1006V19.1045C56.1006 17.8252 55.998 17.0488 55.793 16.7754C55.5879 16.4727 55.0605 16.3213 54.2109 16.3213V27H48.0586V3.26953ZM54.2109 7.35645V12.6299C54.9336 12.6299 55.4219 12.5322 55.6758 12.3369C55.959 12.1123 56.1006 11.4922 56.1006 10.4766V9.17285C56.1006 8.41113 55.959 7.91309 55.6758 7.67871C55.4023 7.46387 54.9141 7.35645 54.2109 7.35645ZM70.3828 3.26953V27H64.2305V3.26953H70.3828ZM72.873 3.26953H79.084C80.7539 3.26953 82.043 3.41113 82.9512 3.69434C83.8887 3.96777 84.5674 4.34863 84.9873 4.83691C85.4756 5.36426 85.7881 5.95996 85.9248 6.62402C86.0811 7.37598 86.1592 8.47949 86.1592 9.93457V12C86.1592 13.543 85.998 14.6416 85.6758 15.2959C85.3535 15.9893 84.7871 16.5215 83.9766 16.8926C83.127 17.2734 82.0234 17.4639 80.666 17.4639H79.0254V27H72.873V3.26953ZM79.0254 7.35645V13.377H79.5088C80.0654 13.377 80.4512 13.2402 80.666 12.9668C80.8906 12.6836 81.0029 12.1123 81.0029 11.2529V9.30469C81.0029 8.47461 80.8711 7.94238 80.6074 7.70801C80.3438 7.47363 79.8164 7.35645 79.0254 7.35645ZM94.084 3.26953V22.2539H97.8633V27H87.9316V3.26953H94.084ZM112.468 3.26953L107.971 18.416V27H102.272V18.416L97.9219 3.26953H103.591C104.509 7.98633 105.007 11.1064 105.085 12.6299C105.417 10.0811 105.988 6.96094 106.799 3.26953H112.468Z" fill="#163300"/>
</svg>
