<svg width="24" height="24" viewBox="0 0 24 24" fill="none" xmlns="http://www.w3.org/2000/svg">
<path fill-rule="evenodd" clip-rule="evenodd" d="M2.57587 5.57001C2.46263 5.56988 2.35048 5.59208 2.24584 5.63536C2.1412 5.67863 2.04612 5.74212 1.96605 5.82219C1.88598 5.90226 1.82249 5.99734 1.77922 6.10198C1.73594 6.20662 1.71374 6.31877 1.71387 6.43201V17.566C1.71387 18.042 2.09987 18.427 2.57587 18.427H21.4239C21.537 18.4271 21.6491 18.405 21.7537 18.3618C21.8582 18.3185 21.9533 18.2551 22.0333 18.1752C22.1134 18.0952 22.1769 18.0003 22.2202 17.8957C22.2636 17.7912 22.2859 17.6792 22.2859 17.566V6.43201C22.286 6.31877 22.2638 6.20662 22.2205 6.10198C22.1772 5.99734 22.1138 5.90226 22.0337 5.82219C21.9536 5.74212 21.8585 5.67863 21.7539 5.63536C21.6493 5.59208 21.5371 5.56988 21.4239 5.57001H2.57587ZM3.42887 16.713V7.28501V8.99801C3.88328 8.99801 4.31909 8.81756 4.6405 8.49634C4.9619 8.17512 5.1426 7.73942 5.14287 7.28501H18.8569C18.8569 7.51005 18.9012 7.73288 18.9874 7.94078C19.0735 8.14867 19.1998 8.33756 19.3589 8.49664C19.5181 8.65572 19.7071 8.78187 19.915 8.8679C20.123 8.95393 20.3458 8.99814 20.5709 8.99801V14.998C20.1164 14.9983 19.6806 15.1789 19.3592 15.5003C19.0378 15.8217 18.8571 16.2575 18.8569 16.712H20.5709L3.42987 16.713H3.42887ZM4.08487 15.128C3.87685 15.042 3.65395 14.9979 3.42887 14.998V16.713L5.14287 16.712C5.14277 16.3731 5.04221 16.0418 4.85389 15.7601C4.66558 15.4783 4.39796 15.2577 4.08487 15.128ZM10.2849 11.998C10.2849 11.5432 10.4656 11.1069 10.7872 10.7853C11.1088 10.4637 11.545 10.283 11.9999 10.283C12.4547 10.283 12.8909 10.4637 13.2126 10.7853C13.5342 11.1069 13.7149 11.5432 13.7149 11.998C13.7149 12.4529 13.5342 12.8891 13.2126 13.2107C12.8909 13.5323 12.4547 13.713 11.9999 13.713C11.545 13.713 11.1088 13.5323 10.7872 13.2107C10.4656 12.8891 10.2849 12.4529 10.2849 11.998ZM11.9999 8.57001C11.5447 8.56223 11.0925 8.64517 10.6698 8.81398C10.247 8.98279 9.86207 9.23409 9.53744 9.55322C9.2128 9.87236 8.95496 10.2529 8.77896 10.6728C8.60296 11.0926 8.51231 11.5433 8.51231 11.9985C8.51231 12.4537 8.60296 12.9044 8.77896 13.3242C8.95496 13.7441 9.2128 14.1247 9.53744 14.4438C9.86207 14.7629 10.247 15.0142 10.6698 15.183C11.0925 15.3518 11.5447 15.4348 11.9999 15.427C12.899 15.4117 13.7562 15.0437 14.3866 14.4024C15.017 13.7611 15.3703 12.8978 15.3703 11.9985C15.3703 11.0992 15.017 10.2359 14.3866 9.59463C13.7562 8.95333 12.899 8.58536 11.9999 8.57001Z" fill="white"/>
</svg>
