<svg width="32" height="32" viewBox="0 0 32 32" fill="none" xmlns="http://www.w3.org/2000/svg">
<path d="M22.9147 16.4C23.7869 15.7638 24.4955 14.9295 24.9823 13.9659C25.4691 13.0023 25.7201 11.9369 25.7147 10.8573C25.7147 7.08533 22.6267 4 18.8574 4C17.6537 4.00258 16.4717 4.32042 15.4291 4.92185C14.3865 5.52329 13.5196 6.38735 12.9147 7.428C9.25738 7.54267 6.28538 10.572 6.28538 14.2853C6.28538 16.572 7.37205 18.572 9.08538 19.828C7.55571 20.5749 6.26737 21.7377 5.36797 23.183C4.46858 24.6283 3.9945 26.2977 4.00005 28H6.28538C6.28538 25.3147 7.88538 22.972 10.1147 21.828C10.972 21.428 11.8854 21.1427 12.9147 21.1427H13.1427C16.9147 21.1427 20 24.228 20 28H22.2854C22.2854 24.4 20.228 21.3147 17.2 19.828C17.9573 19.25 18.5972 18.5327 19.0854 17.7147C22.7427 17.828 25.7147 20.8573 25.7147 24.572H28C28 20.972 25.9427 17.8853 22.9147 16.4ZM11.8854 18.6853C10 18.1147 8.57338 16.4 8.57338 14.2853C8.57338 12.1147 10.0587 10.3427 12.0587 9.828C12.4014 9.772 12.744 9.71467 13.144 9.71467C13.6014 9.71467 14.0014 9.772 14.4014 9.88533C16.344 10.4573 17.716 12.172 17.716 14.2853C17.716 14.628 17.6587 14.9147 17.6014 15.2573C17.144 17.3147 15.316 18.8573 13.144 18.8573C12.6867 18.8573 12.2867 18.8 11.8867 18.6853H11.8854ZM19.9427 15.3147C20 14.972 20 14.628 20 14.2853C20 11.3147 18.1147 8.8 15.428 7.828C15.8546 7.33882 16.382 6.94769 16.9739 6.68141C17.5658 6.41514 18.2083 6.28003 18.8574 6.28533C20.0686 6.2892 21.2292 6.77218 22.0855 7.6288C22.9419 8.48541 23.4245 9.64608 23.428 10.8573C23.428 13.028 21.9427 14.8 19.9427 15.3147Z" fill="#163300"/>
</svg>
