<svg width="16" height="16" viewBox="0 0 16 16" fill="none" xmlns="http://www.w3.org/2000/svg">
<path fill-rule="evenodd" clip-rule="evenodd" d="M1.14258 7.99933C1.14258 11.7707 4.22858 14.856 7.99991 14.856C11.7712 14.856 14.8572 11.7707 14.8572 8C14.8572 4.22667 11.7712 1.142 7.99991 1.142C4.22858 1.142 1.14258 4.22666 1.14258 7.99933ZM2.28591 7.99933C2.28591 4.856 4.85724 2.28466 7.99991 2.28466C11.1426 2.28466 13.7146 4.856 13.7146 7.99933C13.7146 11.142 11.1426 13.7133 7.99991 13.7133C4.85724 13.7133 2.28591 11.142 2.28591 7.99933ZM8.57125 4.57133H7.42858V9.14333H8.57125V4.57133ZM7.99991 12.0007C8.11447 12.0039 8.2285 11.9841 8.33527 11.9424C8.44204 11.9008 8.53938 11.8382 8.62153 11.7583C8.70369 11.6784 8.76899 11.5828 8.81358 11.4773C8.85817 11.3717 8.88115 11.2583 8.88115 11.1437C8.88115 11.0291 8.85817 10.9156 8.81358 10.8101C8.76899 10.7045 8.70369 10.6089 8.62153 10.529C8.53938 10.4492 8.44204 10.3865 8.33527 10.3449C8.2285 10.3033 8.11447 10.2835 7.99991 10.2867C7.77856 10.2954 7.56918 10.3895 7.41565 10.5492C7.26213 10.7089 7.17638 10.9218 7.17638 11.1433C7.17638 11.3649 7.26213 11.5778 7.41565 11.7375C7.56918 11.8972 7.77856 11.9919 7.99991 12.0007Z" fill="black"/>
</svg>
